HIERARCHY
ROOT Hips
{
  OFFSET 61.7919 92.9829 -6.01913
  CHANNELS 6 Xposition Yposition Zposition Zrotation Xrotation Yrotation
  JOINT RightUpLeg
  {
    OFFSET -8.9458 -8.66707 0.101652
    CHANNELS 3 Zrotation Xrotation Yrotation
    JOINT RightLeg
    {
      OFFSET 0 -44.4227 1.3727
      CHANNELS 3 Zrotation Xrotation Yrotation
      JOINT RightFoot
      {
        OFFSET 0.253549 -42.0924 -1.46059
        CHANNELS 3 Zrotation Xrotation Yrotation
        JOINT RightToes
        {
          OFFSET 0.04 -4.41509 8.4991
          CHANNELS 3 Zrotation Xrotation Yrotation
          End Site
          {
            OFFSET -0.08 -0.137448 9.77979
          }
        }
      }
    }
  }
  JOINT Spine
  {
    OFFSET 0 11.8905 0
    CHANNELS 3 Zrotation Xrotation Yrotation
    JOINT Spine1
    {
      OFFSET 0 25.6574 0.127663
      CHANNELS 3 Zrotation Xrotation Yrotation
      JOINT HEad
      {
        OFFSET 0 8.73416 0.011341
        CHANNELS 3 Zrotation Xrotation Yrotation
        End Site
        {
          OFFSET -0.29 12.7742 2.51395
        }
      }
      JOINT LeftShoulder1
      {
        OFFSET 8.99 -0.362252 -0.22
        CHANNELS 3 Zrotation Xrotation Yrotation
        JOINT LeftArm
        {
          OFFSET 10.2827 -0.00338 0.322123
          CHANNELS 3 Zrotation Xrotation Yrotation
          JOINT LeftForeArm
          {
            OFFSET 32.7669 0.099144 -1.42434
            CHANNELS 3 Zrotation Xrotation Yrotation
            JOINT LeftHand
            {
              OFFSET 27.5643 0.085362 1.02216
              CHANNELS 3 Zrotation Xrotation Yrotation
              End Site
              {
                OFFSET 16.7443 -0.6 1.50291
              }
            }
          }
        }
      }
      JOINT RightShoulder
      {
        OFFSET -8.99 -0.362252 -0.22
        CHANNELS 3 Zrotation Xrotation Yrotation
        JOINT RightArm
        {
          OFFSET -10.2827 -0.00338 0.322123
          CHANNELS 3 Zrotation Xrotation Yrotation
          JOINT RightForeArm
          {
            OFFSET -32.8971 0.099144 -1.42434
            CHANNELS 3 Zrotation Xrotation Yrotation
            JOINT RightHand
            {
              OFFSET -27.4921 0.085362 1.02216
              CHANNELS 3 Zrotation Xrotation Yrotation
              End Site
              {
                OFFSET -16.6312 -0.6 1.50291
              }
            }
          }
        }
      }
    }
  }
  JOINT LeftUpLeg
  {
    OFFSET 8.9458 -8.66707 0.101652
    CHANNELS 3 Zrotation Xrotation Yrotation
    JOINT LeftLeg
    {
      OFFSET 0 -44.4227 1.3727
      CHANNELS 3 Zrotation Xrotation Yrotation
      JOINT LeftFoot
      {
        OFFSET -0.253549 -42.0924 -1.46059
        CHANNELS 3 Zrotation Xrotation Yrotation
        JOINT LeftToes
        {
          OFFSET -0.04 -4.41509 8.4991
          CHANNELS 3 Zrotation Xrotation Yrotation
          End Site
          {
            OFFSET 0.08 -0.047448 9.77979
          }
        }
      }
    }
  }
}
MOTION
Frames:	20
Frame Time:	0.0166667
0.230577 91.5499 37.0654 -3.31128 8.22953 -64.9308 -16.3122 -28.1357 4.95697 13.5019 29.8796 -20.2238 28.6602 27.6061 -8.9125 -32.9546 -31.1446 4.86928 1.62069 10.1881 -4.71571 0.774854 19.9855 -9.0836 16.1132 -15.5826 -19.8418 3.18055e-015 -4.17448e-015 -0 -76.5801 2.04357 -88.4013 9.59113 41.8244 -93.616 6.75917 10.1005 8.25894 30.422 -1.77048 -7.77257 55.7329 -23.6238 38.5992 -13.2486 11.6582 100.737 -8.38196 9.68245 -1.0152 34.8075 8.49651 -10.3893 -15.1075 17.6386 39.9783 9.29184 20.0046 -2.37576 49.5443 -43.748 31.2157 
1.05541 90.7149 35.8477 -3.84918 7.90865 -66.2196 -16.5882 -30.1032 4.9835 13.8698 31.7617 -17.344 33.3846 31.4024 -11.5937 -38.2009 -35.909 4.49871 1.20412 10.4625 -4.63018 0.670949 20.5905 -9.03233 15.5457 -16.6856 -18.5263 3.18055e-015 7.95139e-016 7.95139e-016 -77.6292 -1.19785 -87.5947 8.93335 41.5725 -95.6324 6.55116 10.1057 8.50213 30.2987 -1.77584 -7.81162 60.6076 -29.6569 40.2002 -12.6445 19.3992 108.865 -8.06733 9.69487 -1.06936 34.8778 9.96338 -10.4843 -14.2927 16.9771 39.8996 8.69926 18.3802 -2.09876 50.2276 -43.9676 31.7888 
1.6138 90.2254 34.4501 -3.93917 7.42714 -66.5912 -17.2994 -31.9453 4.86274 14.0051 33.3954 -13.3119 37.5186 33.6656 -13.8977 -40.925 -38.8623 5.10921 0.938323 10.6217 -4.71437 0.426674 20.9413 -9.23664 15.2983 -17.5641 -17.8962 6.36111e-015 -1.98785e-016 -0 -77.7095 -4.70224 -85.9738 7.84133 40.8159 -98.8015 6.35649 10.1111 8.75887 30.5827 -1.95857 -8.32868 65.4321 -36.0531 42.0758 -12.1309 26.7912 118.592 -5.03147 9.87258 -3.56959 34.9079 10.4799 -10.0298 -13.4417 16.2681 38.8139 7.86523 17.2285 -1.8229 49.6316 -43.9902 30.9392 
1.88643 90.0993 32.8714 -3.54873 6.83712 -65.6888 -18.5749 -33.173 4.7512 14.0051 34.1943 -9.20348 40.1543 34.4479 -15.2375 -41.4164 -40.296 6.63655 0.895685 10.633 -4.92354 0.153399 20.9647 -9.60477 15.3517 -18.1848 -18.2947 -8.00021e-032 -5.76476e-015 -7.95139e-016 -76.6624 -7.69747 -83.5549 6.45564 39.6804 -102.433 6.2337 10.1131 8.90041 31.216 -2.29507 -9.233 63.9908 -36.3666 41.8127 -10.9194 25.3148 126.561 1.89988 9.78246 -9.53297 35.0563 9.83535 -9.38925 -12.6925 15.3828 36.6562 6.39983 16.5448 -1.46239 47.7793 -43.8031 28.6569 
1.89122 90.2869 31.121 -2.73346 6.15427 -63.4328 -20.42 -33.4294 4.73672 13.8235 33.8419 -6.50487 40.2325 34.2934 -15.2126 -40.8979 -40.6952 8.05665 1.08957 10.5116 -5.14912 -0.0882022 20.7076 -9.95867 15.5792 -18.7717 -19.8799 -6.06912e-032 -2.18663e-015 -1.59028e-015 -74.5725 -9.50936 -80.4794 5.10668 38.2742 -105.935 6.18748 10.1094 8.86163 32.0224 -2.73713 -10.3752 60.8418 -37.7864 40.9863 -10.0373 22.1022 134.862 10.7306 8.67978 -16.5998 35.2429 8.10915 -8.71641 -11.858 14.2393 33.3107 3.92398 16.407 -0.934952 44.9986 -43.4243 25.2095 
1.68046 90.6732 29.235 -1.57046 5.34711 -60.0167 -22.7591 -32.6612 5.02601 13.5632 32.4728 -6.52765 36.848 33.386 -13.5386 -39.7643 -39.7243 8.30295 1.50199 10.2998 -5.27122 -0.327861 20.2823 -10.1097 15.7529 -19.5974 -22.6192 3.18055e-015 -7.95139e-016 -0 -71.7812 -9.84896 -77.1462 4.09004 36.6828 -108.875 6.18333 10.0987 8.63752 32.7074 -3.1985 -11.5525 57.2616 -42.2694 40.1176 -9.51546 18.2934 142.487 19.9444 6.60811 -22.4061 35.2065 5.58885 -8.03164 -10.74 12.7563 28.8766 0.366557 16.867 -0.194979 41.7319 -42.7947 21.1668 
1.34988 91.0846 27.3067 -0.0964201 4.37728 -55.8374 -25.5084 -31.1346 5.84934 13.4536 30.6346 -9.36999 30.3167 30.8694 -10.3303 -36.3846 -35.8903 7.5012 2.11258 10.0319 -5.2018 -0.639887 19.7788 -9.9363 15.5777 -20.737 -26.289 -6.36111e-015 7.95139e-016 3.18055e-015 -68.8829 -9.00033 -74.1877 3.4446 35.1302 -110.953 6.20586 10.0813 8.25084 32.9068 -3.55069 -12.5163 55.4794 -52.0959 40.4803 -8.90488 16.685 147.896 27.5237 4.65984 -25.0759 34.6386 2.52725 -7.31587 -9.36789 11.1627 23.6791 -4.04488 17.6306 0.76744 38.4452 -41.8627 17.2449 
1.0005 91.3551 25.4619 1.63428 3.27157 -51.429 -28.4904 -29.2278 7.2856 13.6284 28.9581 -13.7662 22.8642 25.568 -6.64612 -28.8075 -28.004 6.60377 2.85023 9.70581 -4.90492 -1.08372 19.211 -9.40419 14.8166 -21.96 -30.4757 -6.17947e-031 5.56597e-015 6.36111e-015 -66.4995 -7.70294 -72.12 2.98982 33.9544 -112.043 6.27669 10.059 7.73294 32.2788 -3.65604 -13.0194 59.1146 -66.8859 45.9735 -8.38214 19.2312 149.569 31.4521 3.90412 -25.0225 33.3815 -0.824298 -6.55067 -7.92705 9.97227 18.1037 -8.77458 18.1826 1.84818 35.6685 -40.8103 14.0768 
0.676312 91.4161 23.7687 3.45822 2.13575 -47.4205 -31.3704 -27.2545 9.2265 14.1175 27.659 -18.4625 16.9678 17.9203 -3.7993 -18.3795 -17.4733 5.27348 3.49215 9.29533 -4.41499 -1.65823 18.5419 -8.55191 13.4503 -22.828 -34.6063 0 0 -0 -65.0229 -6.71082 -70.948 2.57354 33.3151 -112.294 6.39158 10.0343 7.15589 30.4858 -3.39032 -12.8003 80.9148 -80.6284 70.9155 -9.07888 23.386 146.904 31.4889 3.90034 -25.0108 31.5963 -4.00769 -5.72929 -6.61439 9.53345 12.5556 -13.0149 18.2657 2.81652 33.8464 -40.0495 11.9481 
0.390606 91.2762 22.1996 5.11211 1.05316 -44.4768 -33.8186 -25.5944 11.3777 14.9338 26.5656 -22.8772 13.3867 10.2882 -2.1511 -8.93908 -8.1966 3.05545 3.76292 8.82554 -3.81756 -2.27895 17.7728 -7.44718 11.7311 -22.9625 -38.0868 0 0 -0 -64.5744 -6.37086 -70.16 2.2396 33.0402 -112.129 6.47682 10.0118 6.65957 27.0528 -2.65693 -11.5128 154.276 -85.0475 149.289 -12.0009 25.2554 140.764 29.7285 3.44614 -27.8426 29.7168 -6.60577 -4.90912 -5.66791 10.3116 7.6371 -15.9938 17.7677 3.43011 33.0194 -39.8314 10.7055 
0.154057 91.0033 20.6627 6.26876 0.0272284 -43.1277 -35.4818 -24.6924 13.2169 15.8356 25.5484 -26.2857 11.4719 5.59604 -1.41294 -3.75883 -3.35907 1.09347 3.56334 8.40256 -3.19286 -2.79413 17.0142 -6.14004 10.0436 -22.2975 -40.5305 -6.36111e-015 4.77083e-015 6.36111e-015 -65.0817 -6.55895 -69.0636 2.17015 32.786 -112.123 6.42789 9.99931 6.42499 21.524 -1.53476 -8.89327 -158.429 -85.1615 -157.609 -17.3394 24.2234 132.636 29.6136 1.60638 -34.3308 28.3489 -8.25563 -4.32966 -5.48191 12.5942 4.28154 -17.0501 16.7977 3.52875 32.9184 -40.0254 10.1602 
-0.00344681 90.6438 19.0997 6.63199 -1.00508 -43.5573 -35.9631 -24.8131 13.9212 16.031 24.9392 -27.4975 10.5648 5.89856 -1.33313 -4.48369 -3.9677 0.565807 3.0576 8.1608 -2.6003 -3.03913 16.4703 -4.74239 8.73518 -21.0628 -41.7893 -5.29669e-031 -4.77083e-015 -6.36111e-015 -66.3117 -6.99216 -67.0814 2.48696 32.243 -112.833 6.17656 10.0026 6.59246 13.9488 -0.410867 -5.09311 -86.977 -86.4938 -81.0491 -24.1178 22.3131 123.513 33.0745 -2.07914 -42.3097 27.9792 -8.68663 -4.39896 -6.64988 16.2709 3.57719 -15.6593 15.7908 3.09619 33.4493 -40.4232 10.5112 
-0.0340174 90.1365 17.5556 6.07754 -2.07327 -45.4855 -35.0528 -25.8014 12.8113 14.5648 25.2581 -25.9429 10.9966 11.3022 -1.86466 -10.9866 -9.75288 1.1207 2.49766 8.18341 -2.11704 -2.91288 16.3277 -3.551 8.09219 -19.5871 -41.817 1.59028e-015 1.59028e-015 -6.36111e-015 -67.8671 -7.53076 -63.9512 3.07473 31.2486 -114.54 5.7431 10.0177 7.14011 5.25843 0.227406 -0.81035 -15.3921 -79.2125 -5.65745 -29.5407 19.2716 111.388 37.8687 -6.24284 -48.0398 28.6541 -7.90136 -5.46783 -9.70078 20.9057 6.29479 -11.8094 15.2196 2.24674 34.7795 -41.0094 12.0574 
-0.0143785 89.5203 16.0822 4.709 -2.95837 -48.1369 -32.8273 -26.9667 10.3398 11.345 26.1134 -22.6642 13.1275 19.4209 -3.09553 -21.0814 -18.7531 1.29264 2.01356 8.41358 -1.87432 -2.4296 16.6105 -2.93656 8.322 -18.1789 -40.7569 0 1.59028e-015 -0 -69.361 -8.11959 -59.9939 3.62243 29.9488 -117.007 5.24297 10.0338 7.86869 -2.71442 0.231088 2.8454 -0.245285 -61.0937 13.3083 -31.5068 10.7027 91.6203 40.5699 -8.03628 -49.2708 30.1369 -5.92157 -7.56155 -14.4783 24.9283 12.2066 -6.4532 15.62 1.19654 36.8188 -41.7715 14.5171 
-0.00957878 88.9151 14.7477 2.92917 -3.38603 -50.5479 -29.9424 -27.7597 7.96983 7.7808 26.8443 -19.5226 16.1058 26.626 -4.78554 -31.01 -27.2112 0.386017 1.76102 8.74534 -1.94423 -1.66208 17.1768 -3.06387 9.43409 -17.1232 -39.0868 1.59028e-015 3.97569e-015 -1.59028e-014 -70.7089 -8.64892 -56.1897 3.88334 28.9351 -119.535 4.80618 10.0463 8.60619 -8.00371 -0.0345871 4.78743 5.59693 -48.7832 22.8722 -29.7346 5.08302 75.1748 37.3139 -5.47579 -46.7672 31.9194 -3.40421 -10.2664 -19.8721 27.5417 19.8464 -1.08823 16.8328 0.114872 38.9817 -42.5759 16.9535 
-0.0130374 88.5152 13.5812 1.2525 -3.26201 -51.9799 -27.2944 -28.039 6.81183 5.61552 27.1638 -17.9247 18.3756 30.8517 -6.14702 -37.4179 -32.3605 -0.61128 1.87413 9.11025 -2.28313 -0.698985 17.8479 -3.79092 11.0998 -16.6692 -37.4265 -1.59028e-015 7.95139e-016 -0 -72.0552 -8.97655 -53.6877 3.86358 28.9145 -121.367 4.49014 10.0588 9.35323 -9.51401 -0.106804 4.41665 11.2863 -42.8343 31.7581 -24.994 0.360788 66.5709 29.8823 -0.349031 -40.5901 33.4199 -1.19114 -12.8251 -24.3505 28.8811 27.3061 3.09956 18.6077 -0.835118 40.7287 -43.365 18.5671 
0.0378603 88.4778 12.558 0.00958413 -2.73464 -52.2143 -25.4533 -27.8596 6.99332 5.48309 26.9474 -18.0953 19.0684 31.8772 -6.55596 -38.6947 -33.599 -0.396586 2.32479 9.46694 -2.76388 0.339473 18.4878 -4.80783 12.6559 -16.9036 -36.2219 -1.59028e-015 0 3.18055e-015 -73.4002 -8.90584 -53.0651 3.73954 30.0682 -122.126 4.28367 10.0739 10.1367 -7.00822 0.0773263 1.70474 19.1803 -42.0115 40.9879 -19.2771 -1.02799 67.9817 22.7707 4.1147 -31.7951 34.1712 0.283362 -14.4557 -26.7651 29.4661 33.2587 5.65454 20.857 -1.54434 41.8864 -44.0387 19.3366 
0.224155 88.841 11.6315 -0.757789 -2.03539 -51.5567 -24.3932 -27.3395 7.9465 6.6312 26.083 -18.9624 18.6312 30.1595 -6.12291 -35.0376 -31.2668 1.3424 2.94594 9.77207 -3.23697 1.32007 19.0021 -5.80907 13.3931 -17.6079 -35.6652 -1.59028e-015 -8.74653e-015 -3.18055e-015 -74.5043 -8.28061 -54.0844 3.65171 31.9358 -121.945 4.15897 10.0893 10.8694 -0.762821 0.103498 -2.76494 30.09 -44.0355 50.7256 -14.7433 4.18053 77.8228 19.5013 6.18819 -25.1012 33.9797 1.12703 -14.7277 -26.7524 29.6144 37.3411 6.64127 23.169 -1.93893 42.1443 -44.079 19.6844 
0.611405 89.5316 10.754 -1.1798 -1.31105 -50.5548 -23.6862 -26.6319 8.72467 7.55893 24.6442 -18.9203 18.3085 26.5499 -5.44438 -28.1551 -26.115 3.76095 3.54431 9.98428 -3.59993 2.15978 19.3337 -6.60743 12.9683 -18.3563 -35.7187 -1.59028e-015 6.36111e-015 3.18055e-015 -75.0638 -7.17107 -56.0846 3.63425 33.7825 -121.302 4.09675 10.1017 11.4193 8.06772 -0.546204 -7.78222 43.1354 -47.1218 60.2037 -13.6829 14.7424 93.175 20.341 6.20189 -24.2009 33.0318 1.64082 -13.7871 -24.8454 29.277 40.0385 6.32517 24.4678 -1.93434 40.5758 -42.6182 19.5726 
1.23302 90.4157 9.87849 -1.38849 -0.592509 -49.6578 -22.9666 -25.898 8.48455 7.19887 22.7975 -17.1279 19.0974 22.4418 -5.01436 -20.4717 -19.5946 5.67814 3.95981 10.0644 -3.86121 2.84179 19.4418 -7.22193 11.6008 -18.8061 -36.0313 0 0 -0 -74.8329 -5.9479 -58.4297 3.63465 34.9651 -120.734 4.10051 10.1096 11.6818 17.3079 -1.8734 -11.9845 56.5743 -50.5021 68.2487 -16.684 25.2557 111.599 24.4341 4.66666 -27.6264 31.8073 1.90443 -12.2189 -22.2523 28.4306 42.1319 4.95813 23.4932 -1.50227 36.2369 -39.131 18.1522 
